# xmcd
#
# Track frame offsets:
#	182
#	18847
#	33237
#	48012
#	64360
#	79577
#	95882
#	111207
#	129547
#	143247
#
# Disc length: 2098 seconds
#
# Revision: 3
# Processed by: cddbd v1.5.2PL0 Copyright (c) Steve Scherf et al.
# Submitted via: audiograbber 1.83.01
#
DISCID=8108300a
DTITLE=Daniela Romo - Dueña De Mi Corazon
DYEAR=1985
DGENRE=Latin
TTITLE0=Abuso
TTITLE1=Dueña De Mi Corazon
TTITLE2=Mi Perdicion
TTITLE3=Ahora Tu
TTITLE4=Mas Vale Un Hombre
TTITLE5=No Puedo Creer
TTITLE6=Lastima
TTITLE7=Es Nuestro Amor
TTITLE8=Prometes
TTITLE9=Amor Con Amor Se Paga
EXTD=
EXTT0=
EXTT1=
EXTT2=
EXTT3=
EXTT4=
EXTT5=
EXTT6=
EXTT7=
EXTT8=
EXTT9=
PLAYORDER=
